<svg xmlns="http://www.w3.org/2000/svg" xmlns:xlink="http://www.w3.org/1999/xlink" width="500" zoomAndPan="magnify" viewBox="0 0 375 187.499995" height="250" preserveAspectRatio="xMidYMid meet" version="1.2"><defs><clipPath id="38cb196ac7"><path d="M 0.507812 0.914062 L 374.5 0.914062 L 374.5 187 L 0.507812 187 Z M 0.507812 0.914062 "/></clipPath><clipPath id="7d489f0ac4"><path d="M 9.480469 0.914062 L 365.519531 0.914062 C 370.476562 0.914062 374.492188 4.933594 374.492188 9.890625 L 374.492188 178.019531 C 374.492188 182.976562 370.476562 186.992188 365.519531 186.992188 L 9.480469 186.992188 C 4.523438 186.992188 0.507812 182.976562 0.507812 178.019531 L 0.507812 9.890625 C 0.507812 4.933594 4.523438 0.914062 9.480469 0.914062 Z M 9.480469 0.914062 "/></clipPath><clipPath id="cd6b0d03f2"><path d="M 13.414062 172 L 360.476562 172 L 360.476562 172.96875 L 13.414062 172.96875 Z M 13.414062 172 "/></clipPath><clipPath id="52043fa042"><path d="M 13.414062 141 L 360.476562 141 L 360.476562 143 L 13.414062 143 Z M 13.414062 141 "/></clipPath><clipPath id="0dd9f16a4b"><path d="M 13.414062 110 L 360.476562 110 L 360.476562 112 L 13.414062 112 Z M 13.414062 110 "/></clipPath><clipPath id="6c6248d2bb"><path d="M 13.414062 78 L 360.476562 78 L 360.476562 80 L 13.414062 80 Z M 13.414062 78 "/></clipPath><clipPath id="98e20bace7"><path d="M 13.414062 47 L 360.476562 47 L 360.476562 49 L 13.414062 49 Z M 13.414062 47 "/></clipPath><clipPath id="4931121ba4"><path d="M 13.414062 16.265625 L 360.476562 16.265625 L 360.476562 17 L 13.414062 17 Z M 13.414062 16.265625 "/></clipPath><clipPath id="2e499d1ce4"><path d="M 13.414062 154.613281 L 77.160156 154.613281 L 77.160156 172.96875 L 13.414062 172.96875 Z M 13.414062 154.613281 "/></clipPath><clipPath id="44b15bd02a"><path d="M 84.242188 123.171875 L 147.988281 123.171875 L 147.988281 172.96875 L 84.242188 172.96875 Z M 84.242188 123.171875 "/></clipPath><clipPath id="6bc6478e76"><path d="M 155.070312 72.863281 L 218.816406 72.863281 L 218.816406 172.96875 L 155.070312 172.96875 Z M 155.070312 72.863281 "/></clipPath><clipPath id="97bee5c854"><path d="M 225.902344 98.019531 L 289.644531 98.019531 L 289.644531 172.96875 L 225.902344 172.96875 Z M 225.902344 98.019531 "/></clipPath><clipPath id="a891cb253d"><path d="M 296.730469 47.710938 L 360.476562 47.710938 L 360.476562 172.96875 L 296.730469 172.96875 Z M 296.730469 47.710938 "/></clipPath></defs><g id="f753e3bc5c"><g clip-rule="nonzero" clip-path="url(#38cb196ac7)"><g clip-rule="nonzero" clip-path="url(#7d489f0ac4)"><path style="fill:none;stroke-width:8;stroke-linecap:butt;stroke-linejoin:miter;stroke:#ffffff;stroke-opacity:1;stroke-miterlimit:4;" d="M 11.997292 -0.002057 L 487.981962 -0.002057 C 494.608962 -0.002057 499.977406 5.37161 499.977406 11.99861 L 499.977406 236.768278 C 499.977406 243.395278 494.608962 248.763722 487.981962 248.763722 L 11.997292 248.763722 C 5.370292 248.763722 0.00184784 243.395278 0.00184784 236.768278 L 0.00184784 11.99861 C 0.00184784 5.37161 5.370292 -0.002057 11.997292 -0.002057 Z M 11.997292 -0.002057 " transform="matrix(0.748005,0,0,0.748005,0.50643,0.915601)"/></g></g><g clip-rule="nonzero" clip-path="url(#cd6b0d03f2)"><path style="fill:none;stroke-width:1;stroke-linecap:butt;stroke-linejoin:miter;stroke:#ffffff;stroke-opacity:0.6;stroke-miterlimit:4;" d="M -0.000969812 153.39889 L 338.639636 153.39889 " transform="matrix(1.02487,0,0,1.02487,13.415056,16.266593)"/></g><g clip-rule="nonzero" clip-path="url(#52043fa042)"><path style="fill:none;stroke-width:1;stroke-linecap:butt;stroke-linejoin:miter;stroke:#ffffff;stroke-opacity:0.251;stroke-miterlimit:4;" d="M -0.000969812 122.720448 L 338.639636 122.720448 " transform="matrix(1.02487,0,0,1.02487,13.415056,16.266593)"/></g><g clip-rule="nonzero" clip-path="url(#0dd9f16a4b)"><path style="fill:none;stroke-width:1;stroke-linecap:butt;stroke-linejoin:miter;stroke:#ffffff;stroke-opacity:0.251;stroke-miterlimit:4;" d="M -0.000969812 92.038194 L 338.639636 92.038194 " transform="matrix(1.02487,0,0,1.02487,13.415056,16.266593)"/></g><g clip-rule="nonzero" clip-path="url(#6c6248d2bb)"><path style="fill:none;stroke-width:1;stroke-linecap:butt;stroke-linejoin:miter;stroke:#ffffff;stroke-opacity:0.251;stroke-miterlimit:4;" d="M -0.000969812 61.359752 L 338.639636 61.359752 " transform="matrix(1.02487,0,0,1.02487,13.415056,16.266593)"/></g><g clip-rule="nonzero" clip-path="url(#98e20bace7)"><path style="fill:none;stroke-width:1;stroke-linecap:butt;stroke-linejoin:miter;stroke:#ffffff;stroke-opacity:0.251;stroke-miterlimit:4;" d="M -0.000969812 30.68131 L 338.639636 30.68131 " transform="matrix(1.02487,0,0,1.02487,13.415056,16.266593)"/></g><g clip-rule="nonzero" clip-path="url(#4931121ba4)"><path style="fill:none;stroke-width:1;stroke-linecap:butt;stroke-linejoin:miter;stroke:#ffffff;stroke-opacity:0.251;stroke-miterlimit:4;" d="M -0.000969812 -0.000944158 L 338.639636 -0.000944158 " transform="matrix(1.02487,0,0,1.02487,13.415056,16.266593)"/></g><g clip-rule="nonzero" clip-path="url(#2e499d1ce4)"><path style=" stroke:none;fill-rule:nonzero;fill:#a86033;fill-opacity:1;" d="M 18.515625 154.613281 L 72.0625 154.613281 C 72.394531 154.613281 72.726562 154.648438 73.054688 154.714844 C 73.382812 154.777344 73.703125 154.875 74.011719 155.003906 C 74.320312 155.132812 74.617188 155.289062 74.894531 155.472656 C 75.171875 155.660156 75.429688 155.871094 75.667969 156.109375 C 75.902344 156.34375 76.117188 156.601562 76.300781 156.882812 C 76.488281 157.160156 76.644531 157.453125 76.773438 157.761719 C 76.902344 158.074219 76.996094 158.390625 77.0625 158.71875 C 77.128906 159.046875 77.160156 159.378906 77.160156 159.714844 L 77.160156 173.480469 C 77.160156 173.816406 77.128906 174.148438 77.0625 174.476562 C 76.996094 174.804688 76.902344 175.121094 76.773438 175.433594 C 76.644531 175.742188 76.488281 176.035156 76.300781 176.3125 C 76.117188 176.59375 75.902344 176.851562 75.667969 177.085938 C 75.429688 177.324219 75.171875 177.535156 74.894531 177.722656 C 74.617188 177.90625 74.320312 178.0625 74.011719 178.191406 C 73.703125 178.320312 73.382812 178.417969 73.054688 178.480469 C 72.726562 178.546875 72.394531 178.582031 72.0625 178.582031 L 18.515625 178.582031 C 18.179688 178.582031 17.847656 178.546875 17.519531 178.480469 C 17.191406 178.417969 16.871094 178.320312 16.5625 178.191406 C 16.253906 178.0625 15.960938 177.90625 15.679688 177.722656 C 15.402344 177.535156 15.144531 177.324219 14.910156 177.085938 C 14.671875 176.851562 14.460938 176.59375 14.273438 176.3125 C 14.089844 176.035156 13.929688 175.742188 13.804688 175.433594 C 13.675781 175.121094 13.578125 174.804688 13.511719 174.476562 C 13.449219 174.148438 13.414062 173.816406 13.414062 173.480469 L 13.414062 159.714844 C 13.414062 159.378906 13.449219 159.046875 13.511719 158.71875 C 13.578125 158.390625 13.675781 158.074219 13.804688 157.761719 C 13.929688 157.453125 14.089844 157.160156 14.273438 156.882812 C 14.460938 156.601562 14.671875 156.34375 14.910156 156.109375 C 15.144531 155.871094 15.402344 155.660156 15.679688 155.472656 C 15.960938 155.289062 16.253906 155.132812 16.5625 155.003906 C 16.871094 154.875 17.191406 154.777344 17.519531 154.714844 C 17.847656 154.648438 18.179688 154.613281 18.515625 154.613281 Z M 18.515625 154.613281 "/></g><g clip-rule="nonzero" clip-path="url(#44b15bd02a)"><path style=" stroke:none;fill-rule:nonzero;fill:#a86033;fill-opacity:1;" d="M 89.34375 123.171875 L 142.890625 123.171875 C 143.222656 123.171875 143.554688 123.203125 143.882812 123.269531 C 144.214844 123.335938 144.53125 123.433594 144.839844 123.558594 C 145.152344 123.6875 145.445312 123.84375 145.722656 124.03125 C 146 124.21875 146.257812 124.429688 146.496094 124.664062 C 146.730469 124.902344 146.945312 125.160156 147.128906 125.4375 C 147.316406 125.71875 147.472656 126.011719 147.601562 126.320312 C 147.730469 126.628906 147.824219 126.949219 147.890625 127.277344 C 147.957031 127.605469 147.988281 127.9375 147.988281 128.273438 L 147.988281 173.480469 C 147.988281 173.816406 147.957031 174.148438 147.890625 174.476562 C 147.824219 174.804688 147.730469 175.121094 147.601562 175.433594 C 147.472656 175.742188 147.316406 176.035156 147.128906 176.3125 C 146.945312 176.59375 146.730469 176.851562 146.496094 177.085938 C 146.257812 177.324219 146 177.535156 145.722656 177.722656 C 145.445312 177.90625 145.152344 178.0625 144.839844 178.191406 C 144.53125 178.320312 144.214844 178.417969 143.882812 178.480469 C 143.554688 178.546875 143.222656 178.582031 142.890625 178.582031 L 89.34375 178.582031 C 89.007812 178.582031 88.675781 178.546875 88.347656 178.480469 C 88.019531 178.417969 87.699219 178.320312 87.390625 178.191406 C 87.082031 178.0625 86.789062 177.90625 86.511719 177.722656 C 86.230469 177.535156 85.972656 177.324219 85.738281 177.085938 C 85.5 176.851562 85.289062 176.59375 85.101562 176.3125 C 84.917969 176.035156 84.761719 175.742188 84.632812 175.433594 C 84.503906 175.121094 84.40625 174.804688 84.339844 174.476562 C 84.277344 174.148438 84.242188 173.816406 84.242188 173.480469 L 84.242188 128.273438 C 84.242188 127.9375 84.277344 127.605469 84.339844 127.277344 C 84.40625 126.949219 84.503906 126.628906 84.632812 126.320312 C 84.761719 126.011719 84.917969 125.71875 85.101562 125.4375 C 85.289062 125.160156 85.5 124.902344 85.738281 124.664062 C 85.972656 124.429688 86.230469 124.21875 86.511719 124.03125 C 86.789062 123.84375 87.082031 123.6875 87.390625 123.558594 C 87.699219 123.433594 88.019531 123.335938 88.347656 123.269531 C 88.675781 123.203125 89.007812 123.171875 89.34375 123.171875 Z M 89.34375 123.171875 "/></g><g clip-rule="nonzero" clip-path="url(#6bc6478e76)"><path style=" stroke:none;fill-rule:nonzero;fill:#a86033;fill-opacity:1;" d="M 160.171875 72.863281 L 213.71875 72.863281 C 214.054688 72.863281 214.382812 72.894531 214.714844 72.960938 C 215.042969 73.027344 215.359375 73.125 215.667969 73.25 C 215.980469 73.378906 216.273438 73.535156 216.550781 73.722656 C 216.828125 73.910156 217.085938 74.121094 217.324219 74.355469 C 217.5625 74.59375 217.773438 74.851562 217.957031 75.128906 C 218.144531 75.410156 218.300781 75.703125 218.429688 76.011719 C 218.558594 76.320312 218.65625 76.640625 218.71875 76.96875 C 218.785156 77.296875 218.816406 77.628906 218.816406 77.964844 L 218.816406 173.480469 C 218.816406 173.816406 218.785156 174.148438 218.71875 174.476562 C 218.65625 174.804688 218.558594 175.121094 218.429688 175.433594 C 218.300781 175.742188 218.144531 176.035156 217.957031 176.3125 C 217.773438 176.59375 217.5625 176.851562 217.324219 177.085938 C 217.085938 177.324219 216.828125 177.535156 216.550781 177.722656 C 216.273438 177.90625 215.980469 178.0625 215.667969 178.191406 C 215.359375 178.320312 215.042969 178.417969 214.714844 178.480469 C 214.382812 178.546875 214.054688 178.582031 213.71875 178.582031 L 160.171875 178.582031 C 159.835938 178.582031 159.503906 178.546875 159.175781 178.480469 C 158.847656 178.417969 158.53125 178.320312 158.21875 178.191406 C 157.910156 178.0625 157.617188 177.90625 157.339844 177.722656 C 157.058594 177.535156 156.800781 177.324219 156.566406 177.085938 C 156.328125 176.851562 156.117188 176.59375 155.929688 176.3125 C 155.746094 176.035156 155.589844 175.742188 155.460938 175.433594 C 155.332031 175.121094 155.234375 174.804688 155.171875 174.476562 C 155.105469 174.148438 155.070312 173.816406 155.070312 173.480469 L 155.070312 77.964844 C 155.070312 77.628906 155.105469 77.296875 155.171875 76.96875 C 155.234375 76.640625 155.332031 76.320312 155.460938 76.011719 C 155.589844 75.703125 155.746094 75.410156 155.929688 75.128906 C 156.117188 74.851562 156.328125 74.59375 156.566406 74.355469 C 156.800781 74.121094 157.058594 73.910156 157.339844 73.722656 C 157.617188 73.535156 157.910156 73.378906 158.21875 73.25 C 158.53125 73.125 158.847656 73.027344 159.175781 72.960938 C 159.503906 72.894531 159.835938 72.863281 160.171875 72.863281 Z M 160.171875 72.863281 "/></g><g clip-rule="nonzero" clip-path="url(#97bee5c854)"><path style=" stroke:none;fill-rule:nonzero;fill:#a86033;fill-opacity:1;" d="M 231 98.019531 L 284.546875 98.019531 C 284.882812 98.019531 285.214844 98.050781 285.542969 98.117188 C 285.871094 98.179688 286.1875 98.277344 286.5 98.40625 C 286.808594 98.535156 287.101562 98.691406 287.378906 98.878906 C 287.660156 99.0625 287.914062 99.273438 288.152344 99.511719 C 288.390625 99.75 288.601562 100.007812 288.785156 100.285156 C 288.972656 100.5625 289.128906 100.855469 289.257812 101.164062 C 289.386719 101.476562 289.484375 101.792969 289.546875 102.121094 C 289.613281 102.449219 289.644531 102.78125 289.644531 103.117188 L 289.644531 173.480469 C 289.644531 173.816406 289.613281 174.148438 289.546875 174.476562 C 289.484375 174.804688 289.386719 175.121094 289.257812 175.433594 C 289.128906 175.742188 288.972656 176.035156 288.785156 176.3125 C 288.601562 176.59375 288.390625 176.851562 288.152344 177.085938 C 287.914062 177.324219 287.660156 177.535156 287.378906 177.722656 C 287.101562 177.90625 286.808594 178.0625 286.5 178.191406 C 286.1875 178.320312 285.871094 178.417969 285.542969 178.480469 C 285.214844 178.546875 284.882812 178.582031 284.546875 178.582031 L 231 178.582031 C 230.664062 178.582031 230.332031 178.546875 230.003906 178.480469 C 229.675781 178.417969 229.359375 178.320312 229.046875 178.191406 C 228.738281 178.0625 228.445312 177.90625 228.167969 177.722656 C 227.886719 177.535156 227.632812 177.324219 227.394531 177.085938 C 227.15625 176.851562 226.945312 176.59375 226.761719 176.3125 C 226.574219 176.035156 226.417969 175.742188 226.289062 175.433594 C 226.160156 175.121094 226.0625 174.804688 226 174.476562 C 225.933594 174.148438 225.902344 173.816406 225.902344 173.480469 L 225.902344 103.117188 C 225.902344 102.78125 225.933594 102.449219 226 102.121094 C 226.0625 101.792969 226.160156 101.476562 226.289062 101.164062 C 226.417969 100.855469 226.574219 100.5625 226.761719 100.285156 C 226.945312 100.007812 227.15625 99.75 227.394531 99.511719 C 227.632812 99.273438 227.886719 99.0625 228.167969 98.878906 C 228.445312 98.691406 228.738281 98.535156 229.046875 98.40625 C 229.359375 98.277344 229.675781 98.179688 230.003906 98.117188 C 230.332031 98.050781 230.664062 98.019531 231 98.019531 Z M 231 98.019531 "/></g><g clip-rule="nonzero" clip-path="url(#a891cb253d)"><path style=" stroke:none;fill-rule:nonzero;fill:#a86033;fill-opacity:1;" d="M 301.828125 47.710938 L 355.375 47.710938 C 355.710938 47.710938 356.042969 47.742188 356.371094 47.808594 C 356.699219 47.871094 357.015625 47.96875 357.328125 48.097656 C 357.636719 48.226562 357.929688 48.382812 358.207031 48.570312 C 358.488281 48.753906 358.746094 48.964844 358.980469 49.203125 C 359.21875 49.441406 359.429688 49.699219 359.617188 49.976562 C 359.800781 50.253906 359.957031 50.546875 360.085938 50.859375 C 360.214844 51.167969 360.3125 51.484375 360.375 51.8125 C 360.441406 52.140625 360.476562 52.472656 360.476562 52.808594 L 360.476562 173.480469 C 360.476562 173.816406 360.441406 174.148438 360.375 174.476562 C 360.3125 174.804688 360.214844 175.121094 360.085938 175.433594 C 359.957031 175.742188 359.800781 176.035156 359.617188 176.3125 C 359.429688 176.59375 359.21875 176.851562 358.980469 177.085938 C 358.746094 177.324219 358.488281 177.535156 358.207031 177.722656 C 357.929688 177.90625 357.636719 178.0625 357.328125 178.191406 C 357.015625 178.320312 356.699219 178.417969 356.371094 178.480469 C 356.042969 178.546875 355.710938 178.582031 355.375 178.582031 L 301.828125 178.582031 C 301.492188 178.582031 301.164062 178.546875 300.832031 178.480469 C 300.503906 178.417969 300.1875 178.320312 299.878906 178.191406 C 299.566406 178.0625 299.273438 177.90625 298.996094 177.722656 C 298.71875 177.535156 298.460938 177.324219 298.222656 177.085938 C 297.984375 176.851562 297.773438 176.59375 297.589844 176.3125 C 297.402344 176.035156 297.246094 175.742188 297.117188 175.433594 C 296.988281 175.121094 296.890625 174.804688 296.828125 174.476562 C 296.761719 174.148438 296.730469 173.816406 296.730469 173.480469 L 296.730469 52.808594 C 296.730469 52.472656 296.761719 52.140625 296.828125 51.8125 C 296.890625 51.484375 296.988281 51.167969 297.117188 50.859375 C 297.246094 50.546875 297.402344 50.253906 297.589844 49.976562 C 297.773438 49.699219 297.984375 49.441406 298.222656 49.203125 C 298.460938 48.964844 298.71875 48.753906 298.996094 48.570312 C 299.273438 48.382812 299.566406 48.226562 299.878906 48.097656 C 300.1875 47.96875 300.503906 47.871094 300.832031 47.808594 C 301.164062 47.742188 301.492188 47.710938 301.828125 47.710938 Z M 301.828125 47.710938 "/></g><path style=" stroke:none;fill-rule:nonzero;fill:#ffffff;fill-opacity:1;" d="M 14.363281 16.347656 C 14.132812 16.441406 13.925781 16.636719 13.816406 16.867188 L 13.730469 17.046875 L 13.730469 18.820312 C 13.730469 19.914062 13.746094 20.597656 13.765625 20.613281 C 13.785156 20.625 15.089844 20.632812 16.660156 20.632812 C 19.25 20.632812 19.523438 20.636719 19.542969 20.6875 C 19.574219 20.765625 19.574219 24.425781 19.542969 24.5 C 19.523438 24.554688 19.25 24.558594 16.660156 24.558594 C 15.089844 24.558594 13.785156 24.5625 13.765625 24.574219 C 13.71875 24.605469 13.71875 28.363281 13.765625 28.394531 C 13.785156 28.402344 15.089844 28.414062 16.664062 28.410156 C 19.246094 28.410156 19.523438 28.414062 19.542969 28.46875 C 19.574219 28.542969 19.574219 32.207031 19.542969 32.277344 C 19.523438 32.332031 19.25 32.335938 16.660156 32.335938 C 15.089844 32.335938 13.785156 32.34375 13.765625 32.355469 C 13.71875 32.382812 13.71875 36.144531 13.765625 36.171875 C 13.785156 36.183594 15.089844 36.195312 16.664062 36.191406 C 19.246094 36.191406 19.523438 36.195312 19.542969 36.246094 C 19.554688 36.277344 19.566406 37.144531 19.566406 38.171875 C 19.566406 39.703125 19.558594 40.042969 19.515625 40.074219 C 19.480469 40.105469 18.691406 40.117188 16.632812 40.117188 C 15.078125 40.113281 13.785156 40.121094 13.765625 40.132812 C 13.71875 40.164062 13.71875 43.921875 13.765625 43.953125 C 13.785156 43.960938 15.089844 43.972656 16.664062 43.972656 C 19.242188 43.96875 19.523438 43.972656 19.542969 44.027344 C 19.554688 44.054688 19.566406 44.921875 19.566406 45.949219 C 19.566406 47.480469 19.558594 47.824219 19.515625 47.855469 C 19.480469 47.882812 18.691406 47.894531 16.632812 47.894531 C 15.078125 47.890625 13.785156 47.902344 13.765625 47.914062 C 13.742188 47.925781 13.730469 49.078125 13.730469 51.15625 L 13.730469 54.382812 L 13.816406 54.570312 C 13.929688 54.808594 14.132812 55 14.371094 55.09375 L 14.5625 55.171875 L 22.890625 55.164062 L 31.214844 55.152344 L 31.214844 16.292969 L 22.878906 16.285156 C 14.597656 16.277344 14.542969 16.277344 14.363281 16.347656 Z M 14.363281 16.347656 "/><path style=" stroke:none;fill-rule:nonzero;fill:#ffffff;fill-opacity:1;" d="M 35.140625 16.316406 C 35.132812 16.34375 35.128906 20.277344 35.132812 25.0625 L 35.140625 33.757812 L 52.609375 33.757812 L 52.609375 27.960938 L 49.710938 27.941406 L 46.8125 27.925781 L 46.800781 25.332031 C 46.796875 23.90625 46.800781 22.703125 46.8125 22.660156 L 46.828125 22.578125 L 49.691406 22.578125 C 51.265625 22.578125 52.574219 22.570312 52.589844 22.558594 C 52.617188 22.542969 52.628906 21.578125 52.628906 19.792969 L 52.628906 17.046875 L 52.542969 16.867188 C 52.429688 16.632812 52.222656 16.441406 51.988281 16.347656 L 51.796875 16.273438 L 43.476562 16.273438 C 36.855469 16.273438 35.152344 16.285156 35.140625 16.316406 Z M 35.140625 16.316406 "/><path style=" stroke:none;fill-rule:nonzero;fill:#ffffff;fill-opacity:1;" d="M 35.140625 37.710938 C 35.132812 37.734375 35.128906 41.671875 35.132812 46.453125 L 35.140625 55.152344 L 43.46875 55.164062 L 51.796875 55.171875 L 51.988281 55.09375 C 52.230469 55 52.433594 54.804688 52.542969 54.5625 L 52.628906 54.371094 L 52.628906 51.601562 C 52.628906 49.871094 52.613281 48.828125 52.589844 48.8125 C 52.574219 48.800781 51.269531 48.796875 49.699219 48.796875 C 47.109375 48.796875 46.835938 48.792969 46.816406 48.738281 C 46.804688 48.707031 46.792969 47.515625 46.792969 46.089844 C 46.792969 44.046875 46.804688 43.5 46.839844 43.5 C 46.863281 43.5 48.171875 43.496094 49.746094 43.492188 L 52.609375 43.484375 L 52.609375 37.683594 L 43.882812 37.675781 C 36.921875 37.667969 35.152344 37.675781 35.140625 37.710938 Z M 35.140625 37.710938 "/></g></svg>