<svg xmlns="http://www.w3.org/2000/svg" xmlns:xlink="http://www.w3.org/1999/xlink" width="500" zoomAndPan="magnify" viewBox="0 0 375 187.499995" height="250" preserveAspectRatio="xMidYMid meet" version="1.2"><defs><filter x="0%" y="0%" width="100%" filterUnits="objectBoundingBox" id="716632e883" height="100%"><feColorMatrix values="0 0 0 0 1 0 0 0 0 1 0 0 0 0 1 0 0 0 1 0" type="matrix" in="SourceGraphic"/></filter><clipPath id="3f72fae71b"><path d="M 1.074219 0.550781 L 256 0.550781 L 256 76 L 1.074219 76 Z M 1.074219 0.550781 "/></clipPath><clipPath id="0aa0e7f4de"><path d="M 128.453125 0.550781 C 58.101562 0.550781 1.074219 17.441406 1.074219 38.277344 C 1.074219 59.109375 58.101562 76 128.453125 76 C 198.800781 76 255.828125 59.109375 255.828125 38.277344 C 255.828125 17.441406 198.800781 0.550781 128.453125 0.550781 Z M 128.453125 0.550781 "/></clipPath><clipPath id="7a57ebc2be"><rect x="0" width="257" y="0" height="76"/></clipPath><clipPath id="f864a97fd2"><path d="M 1.164062 0.519531 L 204.925781 0.519531 L 204.925781 60.824219 L 1.164062 60.824219 Z M 1.164062 0.519531 "/></clipPath><clipPath id="d8de984bde"><path d="M 102.96875 0.519531 C 46.746094 0.519531 1.164062 14.019531 1.164062 30.671875 C 1.164062 47.324219 46.746094 60.824219 102.96875 60.824219 C 159.195312 60.824219 204.777344 47.324219 204.777344 30.671875 C 204.777344 14.019531 159.195312 0.519531 102.96875 0.519531 Z M 102.96875 0.519531 "/></clipPath><clipPath id="69390f02e4"><rect x="0" width="206" y="0" height="61"/></clipPath><clipPath id="8621c3eb11"><path d="M 0.453125 0.519531 L 170.960938 0.519531 L 170.960938 50.984375 L 0.453125 50.984375 Z M 0.453125 0.519531 "/></clipPath><clipPath id="1a5bfa8296"><path d="M 85.644531 0.519531 C 38.59375 0.519531 0.453125 11.816406 0.453125 25.753906 C 0.453125 39.6875 38.59375 50.984375 85.644531 50.984375 C 132.695312 50.984375 170.835938 39.6875 170.835938 25.753906 C 170.835938 11.816406 132.695312 0.519531 85.644531 0.519531 Z M 85.644531 0.519531 "/></clipPath><clipPath id="6a0974ce1c"><rect x="0" width="172" y="0" height="52"/></clipPath><clipPath id="52ebcfb340"><path d="M 77.929688 0.046875 L 297.09375 0.046875 L 297.09375 93.546875 L 77.929688 93.546875 Z M 77.929688 0.046875 "/></clipPath><clipPath id="84efe49aa9"><path d="M 86.90625 0.046875 L 288.09375 0.046875 C 293.050781 0.046875 297.070312 4.0625 297.070312 9.023438 L 297.070312 84.523438 C 297.070312 89.480469 293.050781 93.5 288.09375 93.5 L 86.90625 93.5 C 81.945312 93.5 77.929688 89.480469 77.929688 84.523438 L 77.929688 9.023438 C 77.929688 4.0625 81.945312 0.046875 86.90625 0.046875 Z M 86.90625 0.046875 "/></clipPath><clipPath id="7803db9248"><path d="M 176.941406 16.875 L 276.980469 16.875 L 276.980469 78.214844 L 176.941406 78.214844 Z M 176.941406 16.875 "/></clipPath><clipPath id="5431e00f87"><path d="M 185.902344 16.875 L 267.910156 16.875 C 272.859375 16.875 276.871094 20.886719 276.871094 25.835938 L 276.871094 69.253906 C 276.871094 74.199219 272.859375 78.214844 267.910156 78.214844 L 185.902344 78.214844 C 180.953125 78.214844 176.941406 74.199219 176.941406 69.253906 L 176.941406 25.835938 C 176.941406 20.886719 180.953125 16.875 185.902344 16.875 Z M 185.902344 16.875 "/></clipPath></defs><g id="212705ded2"><g mask="url(#79bc07720e)" transform="matrix(1,0,0,1,64,111)"><g clip-path="url(#7a57ebc2be)"><g clip-rule="nonzero" clip-path="url(#3f72fae71b)"><g clip-rule="nonzero" clip-path="url(#0aa0e7f4de)"><path style=" stroke:none;fill-rule:nonzero;fill:#8c52ff;fill-opacity:1;" d="M 1.074219 0.550781 L 255.722656 0.550781 L 255.722656 76 L 1.074219 76 Z M 1.074219 0.550781 "/></g></g></g><mask id="79bc07720e"><g filter="url(#716632e883)"><rect x="0" width="375" y="0" height="187.499995" style="fill:#000000;fill-opacity:0.8;stroke:none;"/></g></mask></g><g mask="url(#7407fe3a5c)" transform="matrix(1,0,0,1,11,104)"><g clip-path="url(#69390f02e4)"><g clip-rule="nonzero" clip-path="url(#f864a97fd2)"><g clip-rule="nonzero" clip-path="url(#d8de984bde)"><path style=" stroke:none;fill-rule:nonzero;fill:#8c52ff;fill-opacity:1;" d="M 1.164062 0.519531 L 204.691406 0.519531 L 204.691406 60.824219 L 1.164062 60.824219 Z M 1.164062 0.519531 "/></g></g></g><mask id="7407fe3a5c"><g filter="url(#716632e883)"><rect x="0" width="375" y="0" height="187.499995" style="fill:#000000;fill-opacity:0.8;stroke:none;"/></g></mask></g><g mask="url(#68956be68b)" transform="matrix(1,0,0,1,192,104)"><g clip-path="url(#6a0974ce1c)"><g clip-rule="nonzero" clip-path="url(#8621c3eb11)"><g clip-rule="nonzero" clip-path="url(#1a5bfa8296)"><path style=" stroke:none;fill-rule:nonzero;fill:#8c52ff;fill-opacity:1;" d="M 0.453125 0.519531 L 170.761719 0.519531 L 170.761719 50.984375 L 0.453125 50.984375 Z M 0.453125 0.519531 "/></g></g></g><mask id="68956be68b"><g filter="url(#716632e883)"><rect x="0" width="375" y="0" height="187.499995" style="fill:#000000;fill-opacity:0.8;stroke:none;"/></g></mask></g><g clip-rule="nonzero" clip-path="url(#52ebcfb340)"><g clip-rule="nonzero" clip-path="url(#84efe49aa9)"><path style="fill:none;stroke-width:8;stroke-linecap:butt;stroke-linejoin:miter;stroke:#ffffff;stroke-opacity:1;stroke-miterlimit:4;" d="M 12.002237 0.00177127 L 280.967589 0.00177127 C 287.594589 0.00177127 292.968256 5.370216 292.968256 12.002439 L 292.968256 112.937557 C 292.968256 119.564557 287.594589 124.938224 280.967589 124.938224 L 12.002237 124.938224 C 5.370014 124.938224 0.00156924 119.564557 0.00156924 112.937557 L 0.00156924 12.002439 C 0.00156924 5.370216 5.370014 0.00177127 12.002237 0.00177127 Z M 12.002237 0.00177127 " transform="matrix(0.748005,0,0,0.748005,77.928514,0.0455501)"/></g></g><path style=" stroke:none;fill-rule:nonzero;fill:#ffffff;fill-opacity:1;" d="M 101.09375 17.367188 C 100.742188 17.507812 100.429688 17.804688 100.265625 18.15625 L 100.132812 18.429688 L 100.132812 21.128906 C 100.132812 22.796875 100.15625 23.839844 100.1875 23.863281 C 100.214844 23.878906 102.199219 23.890625 104.59375 23.890625 C 108.535156 23.890625 108.953125 23.894531 108.984375 23.976562 C 109.03125 24.09375 109.03125 29.664062 108.984375 29.78125 C 108.953125 29.863281 108.535156 29.867188 104.59375 29.867188 C 102.199219 29.867188 100.214844 29.878906 100.1875 29.894531 C 100.117188 29.9375 100.117188 35.667969 100.1875 35.710938 C 100.214844 35.726562 102.199219 35.742188 104.597656 35.738281 C 108.53125 35.738281 108.953125 35.742188 108.984375 35.824219 C 109.03125 35.941406 109.03125 41.519531 108.984375 41.628906 C 108.953125 41.710938 108.535156 41.714844 104.59375 41.714844 C 102.199219 41.714844 100.214844 41.726562 100.1875 41.742188 C 100.117188 41.789062 100.117188 47.515625 100.1875 47.558594 C 100.214844 47.574219 102.199219 47.589844 104.597656 47.585938 C 108.53125 47.585938 108.953125 47.589844 108.984375 47.671875 C 109.003906 47.71875 109.019531 49.039062 109.019531 50.601562 C 109.019531 52.933594 109.007812 53.457031 108.941406 53.503906 C 108.886719 53.546875 107.6875 53.566406 104.554688 53.566406 C 102.183594 53.558594 100.214844 53.574219 100.1875 53.59375 C 100.109375 53.636719 100.109375 59.363281 100.1875 59.40625 C 100.214844 59.421875 102.199219 59.441406 104.597656 59.441406 C 108.527344 59.433594 108.953125 59.441406 108.984375 59.523438 C 109.003906 59.566406 109.019531 60.886719 109.019531 62.449219 C 109.019531 64.78125 109.007812 65.304688 108.941406 65.351562 C 108.886719 65.398438 107.6875 65.414062 104.554688 65.414062 C 102.183594 65.40625 100.214844 65.425781 100.1875 65.441406 C 100.148438 65.460938 100.132812 67.21875 100.132812 70.382812 L 100.132812 75.292969 L 100.265625 75.578125 C 100.433594 75.945312 100.742188 76.234375 101.109375 76.378906 L 101.398438 76.492188 L 114.082031 76.484375 L 126.765625 76.464844 L 126.765625 17.277344 L 114.066406 17.269531 C 101.453125 17.257812 101.367188 17.257812 101.09375 17.367188 Z M 101.09375 17.367188 "/><path style=" stroke:none;fill-rule:nonzero;fill:#ffffff;fill-opacity:1;" d="M 132.742188 17.316406 C 132.726562 17.355469 132.722656 23.351562 132.726562 30.636719 L 132.742188 43.882812 L 159.347656 43.882812 L 159.347656 35.050781 L 154.933594 35.023438 L 150.515625 34.996094 L 150.5 31.046875 C 150.492188 28.875 150.5 27.042969 150.515625 26.976562 L 150.542969 26.851562 L 154.902344 26.855469 C 157.300781 26.855469 159.292969 26.839844 159.320312 26.824219 C 159.359375 26.800781 159.375 25.332031 159.375 22.609375 L 159.375 18.429688 L 159.242188 18.15625 C 159.074219 17.800781 158.761719 17.507812 158.398438 17.367188 L 158.109375 17.25 L 145.4375 17.25 C 135.355469 17.25 132.761719 17.269531 132.742188 17.316406 Z M 132.742188 17.316406 "/><path style=" stroke:none;fill-rule:nonzero;fill:#ffffff;fill-opacity:1;" d="M 132.742188 49.902344 C 132.726562 49.9375 132.722656 55.933594 132.726562 63.21875 L 132.742188 76.464844 L 145.425781 76.484375 L 158.109375 76.492188 L 158.398438 76.378906 C 158.769531 76.234375 159.078125 75.941406 159.242188 75.566406 L 159.375 75.277344 L 159.375 71.058594 C 159.375 68.425781 159.351562 66.832031 159.320312 66.8125 C 159.292969 66.796875 157.308594 66.785156 154.914062 66.785156 C 150.972656 66.785156 150.554688 66.777344 150.519531 66.695312 C 150.503906 66.652344 150.488281 64.835938 150.488281 62.664062 C 150.488281 59.550781 150.503906 58.722656 150.558594 58.722656 C 150.59375 58.722656 152.589844 58.714844 154.988281 58.703125 L 159.347656 58.695312 L 159.347656 49.863281 L 146.054688 49.847656 C 135.453125 49.835938 132.761719 49.847656 132.742188 49.902344 Z M 132.742188 49.902344 "/><g clip-rule="nonzero" clip-path="url(#7803db9248)"><g clip-rule="nonzero" clip-path="url(#5431e00f87)"><path style="fill:none;stroke-width:8;stroke-linecap:butt;stroke-linejoin:miter;stroke:#ffffff;stroke-opacity:1;stroke-miterlimit:4;" d="M 11.998634 -0.0022162 L 121.801103 -0.0022162 C 128.427745 -0.0022162 133.799144 5.369182 133.799144 11.995824 L 133.799144 70.129312 C 133.799144 76.750724 128.427745 82.127353 121.801103 82.127353 L 11.998634 82.127353 C 5.371992 82.127353 0.000593266 76.750724 0.000593266 70.129312 L 0.000593266 11.995824 C 0.000593266 5.369182 5.371992 -0.0022162 11.998634 -0.0022162 Z M 11.998634 -0.0022162 " transform="matrix(0.746867,0,0,0.746867,176.940963,16.876655)"/></g></g></g></svg>