<svg width="200" height="200" viewBox="0 0 200 200" xmlns="http://www.w3.org/2000/svg">
  <defs>
    <linearGradient id="dataGradient" x1="0%" y1="0%" x2="100%" y2="100%">
      <stop offset="0%" style="stop-color:#10B981;stop-opacity:1" />
      <stop offset="100%" style="stop-color:#059669;stop-opacity:1" />
    </linearGradient>
  </defs>
  
  <!-- Central hub -->
  <circle cx="100" cy="100" r="25" fill="url(#dataGradient)"/>
  
  <!-- Platform icons around the hub -->
  <rect x="30" y="40" width="20" height="20" rx="3" fill="white" opacity="0.8"/>
  <rect x="150" y="40" width="20" height="20" rx="3" fill="white" opacity="0.8"/>
  <rect x="30" y="140" width="20" height="20" rx="3" fill="white" opacity="0.8"/>
  <rect x="150" y="140" width="20" height="20" rx="3" fill="white" opacity="0.8"/>
  
  <!-- Connection lines -->
  <line x1="50" y1="50" x2="75" y2="85" stroke="white" stroke-width="2" opacity="0.6"/>
  <line x1="150" y1="50" x2="125" y2="85" stroke="white" stroke-width="2" opacity="0.6"/>
  <line x1="50" y1="150" x2="75" y2="115" stroke="white" stroke-width="2" opacity="0.6"/>
  <line x1="150" y1="150" x2="125" y2="115" stroke="white" stroke-width="2" opacity="0.6"/>
  
  <!-- Data flow arrows -->
  <path d="M70 90 L85 95 L70 100" fill="white" opacity="0.8"/>
  <path d="M130 90 L115 95 L130 100" fill="white" opacity="0.8"/>
  <path d="M85 110 L95 115 L85 120" fill="white" opacity="0.8"/>
  <path d="M115 110 L105 115 L115 120" fill="white" opacity="0.8"/>
  
  <!-- Data points -->
  <circle cx="60" cy="70" r="2" fill="white" opacity="0.6"/>
  <circle cx="140" cy="70" r="2" fill="white" opacity="0.6"/>
  <circle cx="60" cy="130" r="2" fill="white" opacity="0.6"/>
  <circle cx="140" cy="130" r="2" fill="white" opacity="0.6"/>
</svg> 