<svg width="200" height="200" viewBox="0 0 200 200" xmlns="http://www.w3.org/2000/svg">
  <defs>
    <linearGradient id="insightsGradient" x1="0%" y1="0%" x2="100%" y2="100%">
      <stop offset="0%" style="stop-color:#EF4444;stop-opacity:1" />
      <stop offset="100%" style="stop-color:#DC2626;stop-opacity:1" />
    </linearGradient>
  </defs>
  
  <!-- Dashboard frame -->
  <rect x="30" y="40" width="140" height="120" fill="white" opacity="0.1" rx="8" stroke="white" stroke-width="1"/>
  
  <!-- Dashboard panels -->
  <rect x="40" y="50" width="55" height="40" fill="url(#insightsGradient)" opacity="0.7" rx="3"/>
  <rect x="105" y="50" width="55" height="40" fill="url(#insightsGradient)" opacity="0.7" rx="3"/>
  <rect x="40" y="100" width="55" height="50" fill="url(#insightsGradient)" opacity="0.7" rx="3"/>
  <rect x="105" y="100" width="55" height="50" fill="url(#insightsGradient)" opacity="0.7" rx="3"/>
  
  <!-- Chart elements in panels -->
  <circle cx="67" cy="70" r="8" fill="white" opacity="0.8"/>
  <rect x="60" y="75" width="14" height="8" fill="white" opacity="0.6"/>
  
  <path d="M115 60 L125 65 L115 70 L125 75 L115 80" stroke="white" stroke-width="2" fill="none" opacity="0.8"/>
  
  <rect x="45" y="110" width="8" height="25" fill="white" opacity="0.7"/>
  <rect x="55" y="115" width="8" height="20" fill="white" opacity="0.7"/>
  <rect x="65" y="105" width="8" height="30" fill="white" opacity="0.7"/>
  
  <circle cx="130" cy="115" r="3" fill="white" opacity="0.8"/>
  <circle cx="140" cy="125" r="3" fill="white" opacity="0.8"/>
  <circle cx="120" cy="135" r="3" fill="white" opacity="0.8"/>
  
  <!-- Lightbulb insight icon -->
  <circle cx="100" cy="25" r="12" fill="url(#insightsGradient)"/>
  <path d="M95 20 L105 20 L103 25 L97 25 Z" fill="white" opacity="0.9"/>
  <path d="M98 25 L102 25 L100 30" stroke="white" stroke-width="1" fill="none"/>
  
  <!-- Connection lines -->
  <line x1="100" y1="37" x2="100" y2="50" stroke="white" stroke-width="1" opacity="0.4"/>
  <line x1="67" y1="50" x2="67" y2="50" stroke="white" stroke-width="1" opacity="0.4"/>
  <line x1="132" y1="50" x2="132" y2="50" stroke="white" stroke-width="1" opacity="0.4"/>
</svg> 