<svg width="200" height="200" viewBox="0 0 200 200" xmlns="http://www.w3.org/2000/svg">
  <defs>
    <linearGradient id="measurementGradient" x1="0%" y1="0%" x2="100%" y2="100%">
      <stop offset="0%" style="stop-color:#F59E0B;stop-opacity:1" />
      <stop offset="100%" style="stop-color:#D97706;stop-opacity:1" />
    </linearGradient>
  </defs>
  
  <!-- Chart background -->
  <rect x="40" y="60" width="120" height="80" fill="white" opacity="0.1" rx="5"/>
  
  <!-- Chart bars -->
  <rect x="50" y="120" width="15" height="15" fill="url(#measurementGradient)" opacity="0.8"/>
  <rect x="70" y="110" width="15" height="25" fill="url(#measurementGradient)" opacity="0.8"/>
  <rect x="90" y="95" width="15" height="40" fill="url(#measurementGradient)" opacity="0.8"/>
  <rect x="110" y="85" width="15" height="50" fill="url(#measurementGradient)" opacity="0.8"/>
  <rect x="130" y="100" width="15" height="35" fill="url(#measurementGradient)" opacity="0.8"/>
  
  <!-- Analytics icon -->
  <circle cx="100" cy="40" r="20" fill="url(#measurementGradient)"/>
  <path d="M90 35 L95 40 L110 30 L115 35" stroke="white" stroke-width="2" fill="none"/>
  <path d="M85 45 L95 40 L105 45" stroke="white" stroke-width="2" fill="none"/>
  
  <!-- Data points -->
  <circle cx="57" cy="120" r="2" fill="white" opacity="0.7"/>
  <circle cx="77" cy="110" r="2" fill="white" opacity="0.7"/>
  <circle cx="97" cy="95" r="2" fill="white" opacity="0.7"/>
  <circle cx="117" cy="85" r="2" fill="white" opacity="0.7"/>
  <circle cx="137" cy="100" r="2" fill="white" opacity="0.7"/>
  
  <!-- Measurement lines -->
  <line x1="40" y1="140" x2="160" y2="140" stroke="white" stroke-width="1" opacity="0.3"/>
  <line x1="40" y1="120" x2="160" y2="120" stroke="white" stroke-width="1" opacity="0.3"/>
  <line x1="40" y1="100" x2="160" y2="100" stroke="white" stroke-width="1" opacity="0.3"/>
  <line x1="40" y1="80" x2="160" y2="80" stroke="white" stroke-width="1" opacity="0.3"/>
</svg> 