<svg xmlns="http://www.w3.org/2000/svg" version="1.1" xmlns:xlink="http://www.w3.org/1999/xlink" width="1000" height="1000"><g clip-path="url(#SvgjsClipPath1222)"><rect width="1000" height="1000" fill="#010101"></rect><g transform="matrix(0.5925925925925926,0,0,0.5925925925925926,100,100)"><svg xmlns="http://www.w3.org/2000/svg" version="1.1" xmlns:xlink="http://www.w3.org/1999/xlink" width="1350" height="1350"><svg version="1.0" xmlns="http://www.w3.org/2000/svg" viewBox="0 0 1350.000000 1350.000000" preserveAspectRatio="xMidYMid meet">
  <g transform="translate(0.000000,1500.000000) scale(0.100000,-0.100000)" fill="#ffffff" stroke="none">
    <path d="M1515 13619 c-64 -26 -121 -80 -151 -144 l-24 -50 0 -492 c0 -304 4 -494 10 -498 5 -3 367 -5 803 -5 719 0 795 -1 801 -16 8 -21 8 -1037 0 -1058 -6 -15 -82 -16 -801 -16 -436 0 -798 -2 -803 -5 -13 -8 -13 -1052 0 -1060 5 -3 367 -6 804 -5 717 0 794 -1 800 -16 8 -21 8 -1038 0 -1058 -6 -15 -82 -16 -801 -16 -436 0 -798 -2 -803 -5 -13 -8 -13 -1052 0 -1060 5 -3 367 -6 804 -5 717 0 794 -1 800 -16 3 -8 6 -249 6 -534 0 -425 -2 -520 -14 -529 -10 -8 -229 -11 -800 -11 -432 1 -791 -2 -796 -5 -14 -8 -14 -1052 0 -1060 5 -3 367 -6 804 -6 716 1 794 0 800 -15 3 -8 6 -249 6 -534 0 -425 -2 -520 -14 -529 -10 -8 -229 -11 -800 -11 -432 1 -791 -2 -796 -5 -7 -4 -10 -324 -10 -901 l0 -895 24 -52 c31 -67 87 -120 154 -146 l53 -21 2312 2 2312 3 0 5395 0 5395 -2315 2 c-2299 2 -2315 2 -2365 -18z"></path>
    <path d="M7285 13628 c-3 -7 -4 -1100 -3 -2428 l3 -2415 2425 0 2425 0 0 805 0 805 -805 5 -805 5 -3 720 c-1 396 0 730 3 742 l5 23 795 -1 c437 0 800 3 805 6 7 4 10 272 10 768 l0 762 -24 50 c-31 65 -88 118 -154 144 l-53 21 -2310 0 c-1838 0 -2311 -3 -2314 -12z"></path>
    <path d="M7285 7688 c-3 -7 -4 -1100 -3 -2428 l3 -2415 2312 -3 2312 -2 53 21 c68 26 124 80 154 148 l24 53 0 769 c0 480 -4 770 -10 774 -5 3 -367 5 -803 5 -719 0 -795 1 -801 16 -3 8 -6 339 -6 735 0 568 3 719 13 719 6 0 370 1 807 3 l795 2 0 805 0 805 -2423 3 c-1933 2 -2424 0 -2427 -10z"></path>
  </g>
</svg></svg></g></g><defs><clipPath id="SvgjsClipPath1222"><rect width="1000" height="1000" x="0" y="0" rx="250" ry="250"></rect></clipPath></defs></svg>