<svg version="1.1" viewBox="0.0 0.0 960.0 720.0" fill="none" stroke="none" stroke-linecap="square" stroke-miterlimit="10" xmlns:xlink="http://www.w3.org/1999/xlink" xmlns="http://www.w3.org/2000/svg"><clipPath id="p.0"><path d="m0 0l960.0 0l0 720.0l-960.0 0l0 -720.0z" clip-rule="nonzero"/></clipPath><g clip-path="url(#p.0)"><path fill="#000000" fill-opacity="0.0" d="m0 0l960.0 0l0 720.0l-960.0 0z" fill-rule="evenodd"/><path fill="#000000" fill-opacity="0.0" d="m102.73737 182.44357l-0.8824158 90.70865" fill-rule="evenodd"/><path stroke="#ffffff" stroke-width="1.0" stroke-linejoin="round" stroke-linecap="butt" d="m102.73737 182.44357l-0.8824158 90.70865" fill-rule="evenodd"/><path fill="#000000" fill-opacity="0.0" d="m114.39528 182.44357l-0.8824158 90.70865" fill-rule="evenodd"/><path stroke="#ffffff" stroke-width="1.0" stroke-linejoin="round" stroke-linecap="butt" d="m114.39528 182.44357l-0.8824158 90.70865" fill-rule="evenodd"/><path fill="#000000" fill-opacity="0.0" d="m126.05319 182.44357l-0.8824158 90.70865" fill-rule="evenodd"/><path stroke="#ffffff" stroke-width="1.0" stroke-linejoin="round" stroke-linecap="butt" d="m126.05319 182.44357l-0.8824158 90.70865" fill-rule="evenodd"/><path fill="#000000" fill-opacity="0.0" d="m137.7111 182.44357l-0.8824158 90.70865" fill-rule="evenodd"/><path stroke="#ffffff" stroke-width="1.0" stroke-linejoin="round" stroke-linecap="butt" d="m137.7111 182.44357l-0.8824158 90.70865" fill-rule="evenodd"/><path fill="#000000" fill-opacity="0.0" d="m149.369 182.44357l-0.8824158 90.70865" fill-rule="evenodd"/><path stroke="#ffffff" stroke-width="1.0" stroke-linejoin="round" stroke-linecap="butt" d="m149.369 182.44357l-0.8824158 90.70865" fill-rule="evenodd"/><path fill="#000000" fill-opacity="0.0" d="m161.02692 182.44357l-0.8824158 90.70865" fill-rule="evenodd"/><path stroke="#ffffff" stroke-width="1.0" stroke-linejoin="round" stroke-linecap="butt" d="m161.02692 182.44357l-0.8824158 90.70865" fill-rule="evenodd"/><path fill="#000000" fill-opacity="0.0" d="m172.68483 182.44357l-0.8824158 90.70865" fill-rule="evenodd"/><path stroke="#ffffff" stroke-width="1.0" stroke-linejoin="round" stroke-linecap="butt" d="m172.68483 182.44357l-0.8824158 90.70865" fill-rule="evenodd"/><path fill="#000000" fill-opacity="0.0" d="m184.34274 182.44357l-0.88243103 90.70865" fill-rule="evenodd"/><path stroke="#ffffff" stroke-width="1.0" stroke-linejoin="round" stroke-linecap="butt" d="m184.34274 182.44357l-0.88243103 90.70865" fill-rule="evenodd"/><path fill="#000000" fill-opacity="0.0" d="m196.00064 182.44357l-0.8824158 90.70865" fill-rule="evenodd"/><path stroke="#ffffff" stroke-width="1.0" stroke-linejoin="round" stroke-linecap="butt" d="m196.00064 182.44357l-0.8824158 90.70865" fill-rule="evenodd"/><path fill="#000000" fill-opacity="0.0" d="m207.65855 182.44357l-0.8824158 90.70865" fill-rule="evenodd"/><path stroke="#ffffff" stroke-width="1.0" stroke-linejoin="round" stroke-linecap="butt" d="m207.65855 182.44357l-0.8824158 90.70865" fill-rule="evenodd"/><path fill="#000000" fill-opacity="0.0" d="m219.31647 182.44357l-0.8824158 90.70865" fill-rule="evenodd"/><path stroke="#ffffff" stroke-width="1.0" stroke-linejoin="round" stroke-linecap="butt" d="m219.31647 182.44357l-0.8824158 90.70865" fill-rule="evenodd"/><path fill="#000000" fill-opacity="0.0" d="m230.97438 182.44357l-0.88243103 90.70865" fill-rule="evenodd"/><path stroke="#ffffff" stroke-width="1.0" stroke-linejoin="round" stroke-linecap="butt" d="m230.97438 182.44357l-0.88243103 90.70865" fill-rule="evenodd"/><path fill="#000000" fill-opacity="0.0" d="m242.63228 182.44357l-0.8824158 90.70865" fill-rule="evenodd"/><path stroke="#ffffff" stroke-width="1.0" stroke-linejoin="round" stroke-linecap="butt" d="m242.63228 182.44357l-0.8824158 90.70865" fill-rule="evenodd"/><path fill="#000000" fill-opacity="0.0" d="m254.29019 182.44357l-0.8824158 90.70865" fill-rule="evenodd"/><path stroke="#ffffff" stroke-width="1.0" stroke-linejoin="round" stroke-linecap="butt" d="m254.29019 182.44357l-0.8824158 90.70865" fill-rule="evenodd"/><path fill="#000000" fill-opacity="0.0" d="m265.9481 182.44357l-0.8824158 90.70865" fill-rule="evenodd"/><path stroke="#ffffff" stroke-width="1.0" stroke-linejoin="round" stroke-linecap="butt" d="m265.9481 182.44357l-0.8824158 90.70865" fill-rule="evenodd"/><path fill="#000000" fill-opacity="0.0" d="m277.60602 182.44357l-0.8824158 90.70865" fill-rule="evenodd"/><path stroke="#ffffff" stroke-width="1.0" stroke-linejoin="round" stroke-linecap="butt" d="m277.60602 182.44357l-0.8824158 90.70865" fill-rule="evenodd"/><path fill="#000000" fill-opacity="0.0" d="m289.26392 182.44357l-0.8824158 90.70865" fill-rule="evenodd"/><path stroke="#ffffff" stroke-width="1.0" stroke-linejoin="round" stroke-linecap="butt" d="m289.26392 182.44357l-0.8824158 90.70865" fill-rule="evenodd"/><path fill="#000000" fill-opacity="0.0" d="m300.92184 182.44357l-0.8824463 90.70865" fill-rule="evenodd"/><path stroke="#ffffff" stroke-width="1.0" stroke-linejoin="round" stroke-linecap="butt" d="m300.92184 182.44357l-0.8824463 90.70865" fill-rule="evenodd"/><path fill="#000000" fill-opacity="0.0" d="m312.57974 182.44357l-0.8824158 90.70865" fill-rule="evenodd"/><path stroke="#ffffff" stroke-width="1.0" stroke-linejoin="round" stroke-linecap="butt" d="m312.57974 182.44357l-0.8824158 90.70865" fill-rule="evenodd"/><path fill="#000000" fill-opacity="0.0" d="m324.23764 182.44357l-0.8824158 90.70865" fill-rule="evenodd"/><path stroke="#ffffff" stroke-width="1.0" stroke-linejoin="round" stroke-linecap="butt" d="m324.23764 182.44357l-0.8824158 90.70865" fill-rule="evenodd"/><path fill="#000000" fill-opacity="0.0" d="m335.89557 182.44357l-0.8824158 90.70865" fill-rule="evenodd"/><path stroke="#ffffff" stroke-width="1.0" stroke-linejoin="round" stroke-linecap="butt" d="m335.89557 182.44357l-0.8824158 90.70865" fill-rule="evenodd"/><path fill="#000000" fill-opacity="0.0" d="m347.55347 182.44357l-0.8824158 90.70865" fill-rule="evenodd"/><path stroke="#ffffff" stroke-width="1.0" stroke-linejoin="round" stroke-linecap="butt" d="m347.55347 182.44357l-0.8824158 90.70865" fill-rule="evenodd"/><path fill="#000000" fill-opacity="0.0" d="m359.21136 182.44357l-0.8824158 90.70865" fill-rule="evenodd"/><path stroke="#ffffff" stroke-width="1.0" stroke-linejoin="round" stroke-linecap="butt" d="m359.21136 182.44357l-0.8824158 90.70865" fill-rule="evenodd"/><path fill="#000000" fill-opacity="0.0" d="m370.8693 182.44357l-0.8824158 90.70865" fill-rule="evenodd"/><path stroke="#ffffff" stroke-width="1.0" stroke-linejoin="round" stroke-linecap="butt" d="m370.8693 182.44357l-0.8824158 90.70865" fill-rule="evenodd"/><path fill="#000000" fill-opacity="0.0" d="m382.5272 182.44357l-0.8824158 90.70865" fill-rule="evenodd"/><path stroke="#ffffff" stroke-width="1.0" stroke-linejoin="round" stroke-linecap="butt" d="m382.5272 182.44357l-0.8824158 90.70865" fill-rule="evenodd"/><path fill="#000000" fill-opacity="0.0" d="m394.1851 182.44357l-0.8824158 90.70865" fill-rule="evenodd"/><path stroke="#ffffff" stroke-width="1.0" stroke-linejoin="round" stroke-linecap="butt" d="m394.1851 182.44357l-0.8824158 90.70865" fill-rule="evenodd"/><path fill="#000000" fill-opacity="0.0" d="m405.84302 182.44357l-0.8824158 90.70865" fill-rule="evenodd"/><path stroke="#ffffff" stroke-width="1.0" stroke-linejoin="round" stroke-linecap="butt" d="m405.84302 182.44357l-0.8824158 90.70865" fill-rule="evenodd"/><path fill="#000000" fill-opacity="0.0" d="m417.50092 182.44357l-0.8824158 90.70865" fill-rule="evenodd"/><path stroke="#ffffff" stroke-width="1.0" stroke-linejoin="round" stroke-linecap="butt" d="m417.50092 182.44357l-0.8824158 90.70865" fill-rule="evenodd"/><path fill="#000000" fill-opacity="0.0" d="m429.15884 182.44357l-0.8824463 90.70865" fill-rule="evenodd"/><path stroke="#ffffff" stroke-width="1.0" stroke-linejoin="round" stroke-linecap="butt" d="m429.15884 182.44357l-0.8824463 90.70865" fill-rule="evenodd"/><path fill="#000000" fill-opacity="0.0" d="m440.81674 182.44357l-0.8824158 90.70865" fill-rule="evenodd"/><path stroke="#ffffff" stroke-width="1.0" stroke-linejoin="round" stroke-linecap="butt" d="m440.81674 182.44357l-0.8824158 90.70865" fill-rule="evenodd"/><path fill="#000000" fill-opacity="0.0" d="m452.47464 182.44357l-0.8824158 90.70865" fill-rule="evenodd"/><path stroke="#ffffff" stroke-width="1.0" stroke-linejoin="round" stroke-linecap="butt" d="m452.47464 182.44357l-0.8824158 90.70865" fill-rule="evenodd"/><path fill="#000000" fill-opacity="0.0" d="m464.13257 182.44357l-0.8824158 90.70865" fill-rule="evenodd"/><path stroke="#ffffff" stroke-width="1.0" stroke-linejoin="round" stroke-linecap="butt" d="m464.13257 182.44357l-0.8824158 90.70865" fill-rule="evenodd"/><path fill="#000000" fill-opacity="0.0" d="m475.79047 182.44357l-0.8824158 90.70865" fill-rule="evenodd"/><path stroke="#ffffff" stroke-width="1.0" stroke-linejoin="round" stroke-linecap="butt" d="m475.79047 182.44357l-0.8824158 90.70865" fill-rule="evenodd"/><path fill="#000000" fill-opacity="0.0" d="m487.44836 182.44357l-0.8824158 90.70865" fill-rule="evenodd"/><path stroke="#ffffff" stroke-width="1.0" stroke-linejoin="round" stroke-linecap="butt" d="m487.44836 182.44357l-0.8824158 90.70865" fill-rule="evenodd"/><path fill="#000000" fill-opacity="0.0" d="m499.1063 182.44357l-0.8824158 90.70865" fill-rule="evenodd"/><path stroke="#ffffff" stroke-width="1.0" stroke-linejoin="round" stroke-linecap="butt" d="m499.1063 182.44357l-0.8824158 90.70865" fill-rule="evenodd"/><path fill="#000000" fill-opacity="0.0" d="m510.7642 182.44357l-0.8824158 90.70865" fill-rule="evenodd"/><path stroke="#ffffff" stroke-width="1.0" stroke-linejoin="round" stroke-linecap="butt" d="m510.7642 182.44357l-0.8824158 90.70865" fill-rule="evenodd"/><path fill="#000000" fill-opacity="0.0" d="m522.4221 182.44357l-0.8824463 90.70865" fill-rule="evenodd"/><path stroke="#ffffff" stroke-width="1.0" stroke-linejoin="round" stroke-linecap="butt" d="m522.4221 182.44357l-0.8824463 90.70865" fill-rule="evenodd"/><path fill="#000000" fill-opacity="0.0" d="m534.08 182.44357l-0.8824463 90.70865" fill-rule="evenodd"/><path stroke="#ffffff" stroke-width="1.0" stroke-linejoin="round" stroke-linecap="butt" d="m534.08 182.44357l-0.8824463 90.70865" fill-rule="evenodd"/><path fill="#000000" fill-opacity="0.0" d="m545.7379 182.44357l-0.88238525 90.70865" fill-rule="evenodd"/><path stroke="#ffffff" stroke-width="1.0" stroke-linejoin="round" stroke-linecap="butt" d="m545.7379 182.44357l-0.88238525 90.70865" fill-rule="evenodd"/><path fill="#000000" fill-opacity="0.0" d="m557.3958 182.44357l-0.88238525 90.70865" fill-rule="evenodd"/><path stroke="#ffffff" stroke-width="1.0" stroke-linejoin="round" stroke-linecap="butt" d="m557.3958 182.44357l-0.88238525 90.70865" fill-rule="evenodd"/><path fill="#000000" fill-opacity="0.0" d="m569.0537 182.44357l-0.88238525 90.70865" fill-rule="evenodd"/><path stroke="#ffffff" stroke-width="1.0" stroke-linejoin="round" stroke-linecap="butt" d="m569.0537 182.44357l-0.88238525 90.70865" fill-rule="evenodd"/><path fill="#000000" fill-opacity="0.0" d="m580.7117 182.44357l-0.8824463 90.70865" fill-rule="evenodd"/><path stroke="#ffffff" stroke-width="1.0" stroke-linejoin="round" stroke-linecap="butt" d="m580.7117 182.44357l-0.8824463 90.70865" fill-rule="evenodd"/><path fill="#000000" fill-opacity="0.0" d="m592.36957 182.44357l-0.8824463 90.70865" fill-rule="evenodd"/><path stroke="#ffffff" stroke-width="1.0" stroke-linejoin="round" stroke-linecap="butt" d="m592.36957 182.44357l-0.8824463 90.70865" fill-rule="evenodd"/><path fill="#000000" fill-opacity="0.0" d="m604.02747 182.44357l-0.8824463 90.70865" fill-rule="evenodd"/><path stroke="#ffffff" stroke-width="1.0" stroke-linejoin="round" stroke-linecap="butt" d="m604.02747 182.44357l-0.8824463 90.70865" fill-rule="evenodd"/><path fill="#000000" fill-opacity="0.0" d="m615.68536 182.44357l-0.88238525 90.70865" fill-rule="evenodd"/><path stroke="#ffffff" stroke-width="1.0" stroke-linejoin="round" stroke-linecap="butt" d="m615.68536 182.44357l-0.88238525 90.70865" fill-rule="evenodd"/><path fill="#000000" fill-opacity="0.0" d="m627.34326 182.44357l-0.88238525 90.70865" fill-rule="evenodd"/><path stroke="#ffffff" stroke-width="1.0" stroke-linejoin="round" stroke-linecap="butt" d="m627.34326 182.44357l-0.88238525 90.70865" fill-rule="evenodd"/><path fill="#000000" fill-opacity="0.0" d="m639.0012 182.44357l-0.8824463 90.70865" fill-rule="evenodd"/><path stroke="#ffffff" stroke-width="1.0" stroke-linejoin="round" stroke-linecap="butt" d="m639.0012 182.44357l-0.8824463 90.70865" fill-rule="evenodd"/><path fill="#000000" fill-opacity="0.0" d="m650.6591 182.44357l-0.8824463 90.70865" fill-rule="evenodd"/><path stroke="#ffffff" stroke-width="1.0" stroke-linejoin="round" stroke-linecap="butt" d="m650.6591 182.44357l-0.8824463 90.70865" fill-rule="evenodd"/><path fill="#000000" fill-opacity="0.0" d="m662.317 182.44357l-0.8824463 90.70865" fill-rule="evenodd"/><path stroke="#ffffff" stroke-width="1.0" stroke-linejoin="round" stroke-linecap="butt" d="m662.317 182.44357l-0.8824463 90.70865" fill-rule="evenodd"/><path fill="#000000" fill-opacity="0.0" d="m673.9749 182.44357l-0.88238525 90.70865" fill-rule="evenodd"/><path stroke="#ffffff" stroke-width="1.0" stroke-linejoin="round" stroke-linecap="butt" d="m673.9749 182.44357l-0.88238525 90.70865" fill-rule="evenodd"/><path fill="#000000" fill-opacity="0.0" d="m685.6328 182.44357l-0.88238525 90.70865" fill-rule="evenodd"/><path stroke="#ffffff" stroke-width="1.0" stroke-linejoin="round" stroke-linecap="butt" d="m685.6328 182.44357l-0.88238525 90.70865" fill-rule="evenodd"/><path fill="#000000" fill-opacity="0.0" d="m697.2908 182.44357l-0.8824463 90.70865" fill-rule="evenodd"/><path stroke="#ffffff" stroke-width="1.0" stroke-linejoin="round" stroke-linecap="butt" d="m697.2908 182.44357l-0.8824463 90.70865" fill-rule="evenodd"/><path fill="#000000" fill-opacity="0.0" d="m708.94867 182.44357l-0.8824463 90.70865" fill-rule="evenodd"/><path stroke="#ffffff" stroke-width="1.0" stroke-linejoin="round" stroke-linecap="butt" d="m708.94867 182.44357l-0.8824463 90.70865" fill-rule="evenodd"/><path fill="#000000" fill-opacity="0.0" d="m720.60657 182.44357l-0.8824463 90.70865" fill-rule="evenodd"/><path stroke="#ffffff" stroke-width="1.0" stroke-linejoin="round" stroke-linecap="butt" d="m720.60657 182.44357l-0.8824463 90.70865" fill-rule="evenodd"/><path fill="#000000" fill-opacity="0.0" d="m732.26447 182.44357l-0.88238525 90.70865" fill-rule="evenodd"/><path stroke="#ffffff" stroke-width="1.0" stroke-linejoin="round" stroke-linecap="butt" d="m732.26447 182.44357l-0.88238525 90.70865" fill-rule="evenodd"/><path fill="#000000" fill-opacity="0.0" d="m743.92236 182.44357l-0.88238525 90.70865" fill-rule="evenodd"/><path stroke="#ffffff" stroke-width="1.0" stroke-linejoin="round" stroke-linecap="butt" d="m743.92236 182.44357l-0.88238525 90.70865" fill-rule="evenodd"/><path fill="#000000" fill-opacity="0.0" d="m755.58026 182.44357l-0.88238525 90.70865" fill-rule="evenodd"/><path stroke="#ffffff" stroke-width="1.0" stroke-linejoin="round" stroke-linecap="butt" d="m755.58026 182.44357l-0.88238525 90.70865" fill-rule="evenodd"/><path fill="#000000" fill-opacity="0.0" d="m767.2382 182.44357l-0.8824463 90.70865" fill-rule="evenodd"/><path stroke="#ffffff" stroke-width="1.0" stroke-linejoin="round" stroke-linecap="butt" d="m767.2382 182.44357l-0.8824463 90.70865" fill-rule="evenodd"/><path fill="#000000" fill-opacity="0.0" d="m778.8961 182.44357l-0.8824463 90.70865" fill-rule="evenodd"/><path stroke="#ffffff" stroke-width="1.0" stroke-linejoin="round" stroke-linecap="butt" d="m778.8961 182.44357l-0.8824463 90.70865" fill-rule="evenodd"/><path fill="#000000" fill-opacity="0.0" d="m790.554 182.44357l-0.8824463 90.70865" fill-rule="evenodd"/><path stroke="#ffffff" stroke-width="1.0" stroke-linejoin="round" stroke-linecap="butt" d="m790.554 182.44357l-0.8824463 90.70865" fill-rule="evenodd"/><path fill="#000000" fill-opacity="0.0" d="m802.2119 182.44357l-0.88238525 90.70865" fill-rule="evenodd"/><path stroke="#ffffff" stroke-width="1.0" stroke-linejoin="round" stroke-linecap="butt" d="m802.2119 182.44357l-0.88238525 90.70865" fill-rule="evenodd"/><path fill="#000000" fill-opacity="0.0" d="m813.8698 182.44357l-0.88238525 90.70865" fill-rule="evenodd"/><path stroke="#ffffff" stroke-width="1.0" stroke-linejoin="round" stroke-linecap="butt" d="m813.8698 182.44357l-0.88238525 90.70865" fill-rule="evenodd"/><path fill="#000000" fill-opacity="0.0" d="m825.5278 182.44357l-0.8824463 90.70865" fill-rule="evenodd"/><path stroke="#ffffff" stroke-width="1.0" stroke-linejoin="round" stroke-linecap="butt" d="m825.5278 182.44357l-0.8824463 90.70865" fill-rule="evenodd"/><path fill="#000000" fill-opacity="0.0" d="m837.18567 182.44357l-0.8824463 90.70865" fill-rule="evenodd"/><path stroke="#ffffff" stroke-width="1.0" stroke-linejoin="round" stroke-linecap="butt" d="m837.18567 182.44357l-0.8824463 90.70865" fill-rule="evenodd"/></g></svg>